<svg width="121" height="140" viewBox="0 0 121 140" fill="none" xmlns="http://www.w3.org/2000/svg">
<ellipse cx="32" cy="35" rx="32" ry="29" fill="white"/>
<path d="M65.1786 67.4698C64.7996 67.4703 64.4251 67.5517 64.0802 67.7087C63.7353 67.8656 63.4279 68.0945 63.1786 68.3799C63.0115 68.3152 62.8649 68.2068 62.7541 68.066C62.6433 67.9253 62.5723 67.7574 62.5486 67.5799C62.532 67.3201 62.4214 67.0752 62.2373 66.8911C62.0532 66.707 61.8084 66.5964 61.5486 66.5799C61.4131 66.5731 61.2776 66.5939 61.1505 66.6411C61.0233 66.6884 60.9071 66.7609 60.8089 66.8545C60.7107 66.948 60.6325 67.0606 60.5792 67.1853C60.5258 67.31 60.4984 67.4442 60.4985 67.5799C60.5593 68.1262 60.7475 68.6506 61.0479 69.1109C61.3484 69.5712 61.7528 69.9545 62.2285 70.2299C62.1115 70.6874 62.051 71.1576 62.0486 71.6299C62.0486 73.9199 63.4485 75.7899 65.1685 75.7899C66.8885 75.7899 68.2885 73.9199 68.2885 71.6299C68.2885 69.3399 66.8986 67.4698 65.1786 67.4698Z" fill="#2C2C2C"/>
<path d="M101.049 66.8799C100.789 66.8964 100.544 67.0071 100.36 67.1912C100.176 67.3752 100.065 67.6201 100.049 67.8799C100.027 68.0592 99.9564 68.2293 99.8455 68.3719C99.7345 68.5145 99.587 68.6244 99.4186 68.6899C99.1746 68.4104 98.8754 68.1843 98.5399 68.026C98.2043 67.8677 97.8395 67.7805 97.4686 67.7699C95.7386 67.7699 94.3486 69.6399 94.3486 71.9299C94.3486 74.2199 95.7386 76.0899 97.4686 76.0899C99.1986 76.0899 100.589 74.2299 100.589 71.9299C100.589 71.4601 100.525 70.9925 100.399 70.5399C100.876 70.2635 101.281 69.8787 101.581 69.4166C101.882 68.9544 102.069 68.428 102.129 67.8799C102.129 67.7416 102.101 67.6047 102.046 67.4778C101.99 67.351 101.91 67.2369 101.808 67.1429C101.707 67.049 101.587 66.9771 101.456 66.9318C101.325 66.8865 101.187 66.8688 101.049 66.8799Z" fill="#2C2C2C"/>
<path d="M82.9188 75.7199C83.1043 75.5201 83.2075 75.2576 83.2075 74.9849C83.2075 74.7123 83.1043 74.4497 82.9188 74.2499C82.8251 74.1484 82.7115 74.0674 82.585 74.012C82.4585 73.9566 82.3219 73.928 82.1838 73.928C82.0457 73.928 81.9091 73.9566 81.7826 74.012C81.6561 74.0674 81.5424 74.1484 81.4488 74.2499C81.3269 74.4449 81.1592 74.607 80.9603 74.7224C80.7614 74.8377 80.5373 74.9026 80.3076 74.9115C80.0778 74.9203 79.8494 74.8729 79.6422 74.7733C79.435 74.6737 79.2553 74.5249 79.1188 74.3399C78.2288 73.3399 76.7588 74.8099 77.6388 75.8099C77.9701 76.1879 78.3797 76.4891 78.8392 76.6927C79.2988 76.8962 79.7971 76.9972 80.2996 76.9887C80.8021 76.9801 81.2968 76.8622 81.7491 76.6431C82.2014 76.424 82.6005 76.1089 82.9188 75.7199V75.7199Z" fill="#2C2C2C"/>
<path d="M85.7486 83.0599C83.2686 87.1599 77.4386 87.3899 75.4486 82.7599C74.9186 81.5399 73.1286 82.5999 73.6486 83.7599C76.2786 89.8799 84.3386 89.3699 87.5486 84.0599C88.2486 82.9699 86.4486 81.9199 85.7486 83.0599Z" fill="#2C2C2C"/>
<path d="M58.6987 62.7298C57.9887 63.8698 59.7887 64.9198 60.4987 63.7798C61.7687 61.7298 65.4487 61.6798 66.6787 63.6998C66.7476 63.818 66.8392 63.9214 66.9481 64.0042C67.057 64.087 67.1812 64.1476 67.3135 64.1824C67.4458 64.2173 67.5837 64.2256 67.7193 64.2072C67.8549 64.1887 67.9855 64.1437 68.1037 64.0748C68.2219 64.0059 68.3253 63.9143 68.4081 63.8054C68.4909 63.6965 68.5515 63.5723 68.5863 63.44C68.6211 63.3076 68.6295 63.1698 68.6111 63.0342C68.5926 62.8986 68.5476 62.768 68.4787 62.6498C66.4187 59.2598 60.7887 59.3498 58.6987 62.7298Z" fill="#2C2C2C"/>
<path d="M94.0686 62.7298C93.3586 63.8698 95.1586 64.9198 95.8586 63.7798C97.1386 61.7298 100.859 61.6798 102.049 63.6998C102.188 63.9372 102.416 64.1095 102.682 64.1789C102.948 64.2483 103.231 64.209 103.469 64.0698C103.706 63.9306 103.878 63.7027 103.948 63.4364C104.017 63.1701 103.978 62.8871 103.839 62.6498C101.789 59.2598 96.1586 59.3498 94.0686 62.7298Z" fill="#2C2C2C"/>
<path d="M100.769 22.5398C100.639 22.4985 100.512 22.4484 100.389 22.3898C103.389 17.6898 102.389 11.5498 98.8988 7.14982C94.4288 1.46982 86.8988 -0.46018 79.9588 0.0898202C73.9588 0.55982 66.9588 2.92984 63.7988 8.44984C61.5288 12.3898 60.5388 18.3798 63.0088 22.4498C56.4277 25.0861 50.8124 29.6754 46.9188 35.5998C40.1988 46.1598 40.9688 59.5298 45.5988 70.7198C44.8938 71.5301 44.3616 72.4757 44.0349 73.4988C43.7082 74.5219 43.5938 75.601 43.6988 76.6698C44.1788 80.7698 47.9788 83.1998 51.8588 82.9298C54.1788 92.0398 59.0188 99.8698 68.8588 103.2C70.2743 103.67 71.717 104.054 73.1788 104.35C74.3288 107.63 70.5988 109.35 67.1788 110.86C65.7123 111.385 64.302 112.055 62.9687 112.86C60.3117 114.853 58.1265 117.407 56.5688 120.34C53.6325 125.865 52.286 132.096 52.6788 138.34C52.7288 139.64 54.7488 139.64 54.6788 138.34C54.4088 130.85 56.0388 123.02 61.1688 117.25C66.7057 120.658 73.1447 122.311 79.6388 121.99C86.0588 121.78 93.6388 120.42 99.1388 116.84C104.549 122.64 106.239 130.65 105.969 138.3C105.969 139.6 107.969 139.6 107.969 138.3C108.362 132.056 107.015 125.825 104.079 120.3C102.522 117.369 100.34 114.816 97.6887 112.82C96.3653 112.016 94.9651 111.346 93.5088 110.82C90.1188 109.37 86.5088 107.62 87.3888 104.49C89.3913 104.153 91.3641 103.658 93.2888 103.01C97.0792 101.812 100.535 99.7402 103.377 96.9609C106.219 94.1815 108.367 90.7727 109.649 87.0098C110.357 85.0042 110.928 82.9528 111.359 80.8698C115.359 80.2598 119.059 78.1298 119.059 73.4998C118.983 71.5168 118.239 69.6176 116.949 68.1098C126.429 51.4498 117.939 30.0698 100.769 22.5398ZM65.3888 9.84983C67.8888 5.21983 73.4688 3.03983 78.3888 2.34983C84.1088 1.53983 90.5388 2.34983 95.0888 6.21983C99.3988 9.84983 101.999 16.7198 98.3988 21.6198C87.5668 17.8257 75.7624 17.8539 64.9488 21.6998C62.7888 18.3098 63.5688 13.2398 65.3888 9.84983ZM45.8088 76.7098C45.2688 74.0298 47.1488 70.7098 50.0788 70.7698C50.2745 74.164 50.7156 77.5394 51.3988 80.8698C50.125 80.9523 48.8633 80.5792 47.8393 79.8171C46.8153 79.055 46.0956 77.9537 45.8088 76.7098ZM87.8088 110.16C88.1301 110.394 88.4639 110.611 88.8088 110.81C90.0459 111.393 91.3145 111.907 92.6088 112.35C94.4258 113.075 96.1142 114.088 97.6088 115.35C92.5088 118.45 85.4488 119.71 79.6088 119.9C73.6796 120.182 67.7975 118.722 62.6887 115.7C65.4687 113.38 68.7588 112.63 71.8388 110.8L72.4387 110.42C73.4406 109.854 74.2525 109.004 74.7721 107.977C75.2917 106.95 75.4958 105.792 75.3588 104.65C78.6351 105.091 81.9534 105.128 85.2388 104.76C85.1297 105.807 85.3097 106.864 85.7593 107.816C86.2089 108.768 86.9108 109.579 87.7888 110.16H87.8088ZM107.869 85.9098C104.109 96.8498 94.3687 102.18 83.1887 102.81C72.5687 103.41 62.1888 100.09 56.8388 90.2998C51.3688 80.2398 51.7288 67.8398 52.0588 56.6998C63.9965 54.2663 74.7098 47.7407 82.3488 38.2498C90.4154 46.0649 100.062 52.0626 110.639 55.8398C110.859 65.8398 111.149 76.3198 107.849 85.9098H107.869ZM82.3787 35.3698C81.4587 34.4298 80.0288 35.8298 80.8688 36.7898C72.8416 46.7815 61.3238 53.357 48.6388 55.1898C47.3188 55.3898 47.8787 57.3898 49.1887 57.1898L49.9588 57.0598C49.8688 60.7198 49.8088 64.6698 49.9588 68.6798C49.0225 68.6516 48.0951 68.8688 47.2688 69.3098C43.3288 59.6098 42.4988 48.1198 47.5188 38.6298C51.5188 31.0798 58.7788 25.9298 66.7888 23.3198C84.2688 17.6398 106.659 21.8098 115.569 39.2698C117.784 43.508 118.922 48.2265 118.882 53.0086C118.842 57.7907 117.625 62.4894 115.339 66.6898C114.572 66.2428 113.679 66.0633 112.799 66.1798C112.849 62.9498 112.799 59.7198 112.709 56.5398C113.709 56.8698 114.779 57.1898 115.829 57.4898C116.094 57.5628 116.377 57.5274 116.616 57.3914C116.856 57.2554 117.031 57.0301 117.104 56.7648C117.177 56.4996 117.141 56.2163 117.005 55.9772C116.869 55.7381 116.644 55.5628 116.379 55.4898C103.476 51.869 91.7472 44.9322 82.3588 35.3698H82.3787ZM116.889 74.5998C116.299 77.1798 114.159 78.2498 111.789 78.6998C112.353 75.2794 112.687 71.825 112.789 68.3598C115.739 67.5998 117.379 72.4398 116.889 74.5998Z" fill="#2C2C2C"/>
<path d="M98.4386 21.6C87.6067 17.8058 75.8023 17.8341 64.9887 21.68C62.7887 18.29 63.5687 13.22 65.3887 9.82999C67.8887 5.19999 73.4687 3.01999 78.3887 2.32999C84.1087 1.51999 90.5387 2.32999 95.0887 6.19999C99.4387 9.84999 102.039 16.72 98.4386 21.6Z" fill="#37485B"/>
<path d="M115.349 66.6999C114.582 66.2529 113.689 66.0734 112.809 66.1899C112.859 62.9599 112.809 59.7299 112.719 56.5499C113.719 56.8799 114.789 57.1999 115.839 57.4999C116.104 57.5729 116.387 57.5375 116.626 57.4015C116.866 57.2655 117.041 57.0401 117.114 56.7749C117.187 56.5097 117.151 56.2264 117.015 55.9873C116.879 55.7482 116.654 55.5729 116.389 55.4999C103.492 51.8731 91.7705 44.933 82.3888 35.3699C81.4688 34.4299 80.0388 35.8299 80.8788 36.7899C72.8492 46.7838 61.3274 53.3595 48.6388 55.1899C47.3188 55.3899 47.8788 57.3899 49.1888 57.1899L49.9588 57.0599C49.8688 60.7199 49.8088 64.6699 49.9588 68.6799C49.0225 68.6517 48.0952 68.8689 47.2688 69.3099C43.3288 59.6099 42.4988 48.1199 47.5188 38.6299C51.5188 31.0799 58.7788 25.9299 66.7888 23.3199C84.2688 17.6399 106.659 21.8099 115.569 39.2699C117.787 43.5086 118.928 48.2284 118.89 53.0124C118.851 57.7965 117.635 62.4974 115.349 66.6999V66.6999Z" fill="#37485B"/>
<path d="M62.9188 126.1C63.1537 125.958 63.3239 125.731 63.393 125.465C63.4622 125.2 63.4248 124.918 63.2888 124.68L62.3588 123.11C62.2136 122.876 61.9848 122.707 61.7191 122.637C61.4534 122.566 61.1708 122.599 60.9288 122.73C60.6932 122.873 60.5228 123.103 60.4537 123.37C60.3846 123.637 60.4223 123.92 60.5588 124.16L61.4988 125.73C61.5639 125.851 61.6534 125.958 61.7617 126.043C61.8699 126.128 61.9946 126.19 62.128 126.225C62.2613 126.26 62.4004 126.267 62.5365 126.245C62.6726 126.224 62.8027 126.174 62.9188 126.1Z" fill="#1664A4"/>
<path d="M68.8287 127.6C69.2382 127.205 69.676 126.841 70.1387 126.51C70.3687 126.361 70.5343 126.132 70.6029 125.867C70.6714 125.602 70.6378 125.321 70.5087 125.08C70.3672 124.845 70.1394 124.675 69.8741 124.605C69.6087 124.536 69.3269 124.574 69.0887 124.71C68.481 125.144 67.9031 125.618 67.3587 126.13C67.1663 126.326 67.0586 126.59 67.0586 126.865C67.0586 127.14 67.1663 127.403 67.3587 127.6C67.5574 127.787 67.8204 127.892 68.0937 127.892C68.3671 127.892 68.6301 127.787 68.8287 127.6V127.6Z" fill="#1664A4"/>
<path d="M78.4587 132C78.6916 131.857 78.8602 131.629 78.9291 131.364C78.9981 131.1 78.9621 130.819 78.8287 130.58C78.7636 130.459 78.6741 130.352 78.5658 130.267C78.4575 130.181 78.3328 130.12 78.1995 130.085C78.0662 130.05 77.9271 130.043 77.791 130.065C77.6549 130.086 77.5247 130.136 77.4087 130.21C76.7922 130.639 76.2012 131.103 75.6387 131.6C75.5422 131.696 75.4656 131.811 75.4134 131.937C75.3611 132.063 75.3342 132.198 75.3342 132.335C75.3342 132.471 75.3611 132.607 75.4134 132.733C75.4656 132.859 75.5422 132.973 75.6387 133.07C75.7352 133.166 75.8498 133.243 75.9759 133.295C76.102 133.348 76.2372 133.374 76.3737 133.374C76.5102 133.374 76.6453 133.348 76.7715 133.295C76.8976 133.243 77.0122 133.166 77.1087 133.07C77.5367 132.686 77.9875 132.329 78.4587 132V132Z" fill="#1664A4"/>
<path d="M64.0685 129.68C63.9749 129.578 63.8612 129.497 63.7347 129.442C63.6082 129.387 63.4717 129.358 63.3336 129.358C63.1955 129.358 63.0588 129.387 62.9323 129.442C62.8058 129.497 62.6922 129.578 62.5985 129.68C62.4108 129.878 62.3062 130.142 62.3062 130.415C62.3062 130.688 62.4108 130.951 62.5985 131.15C63.0185 131.66 63.4286 132.15 63.8386 132.69C63.9322 132.791 64.0458 132.872 64.1723 132.928C64.2988 132.983 64.4354 133.012 64.5735 133.012C64.7116 133.012 64.8483 132.983 64.9748 132.928C65.1013 132.872 65.2149 132.791 65.3086 132.69C65.4963 132.491 65.601 132.228 65.601 131.955C65.601 131.682 65.4963 131.419 65.3086 131.22C64.8986 130.71 64.4885 130.19 64.0685 129.68Z" fill="#1664A4"/>
<path d="M58.8387 134.08L57.3687 134.87C57.1313 135.003 56.9564 135.224 56.8823 135.486C56.8082 135.747 56.8411 136.028 56.9737 136.265C57.1063 136.502 57.3278 136.677 57.5894 136.751C57.851 136.825 58.1313 136.793 58.3687 136.66L59.8387 135.88C60.0753 135.74 60.2476 135.513 60.3186 135.247C60.3897 134.982 60.3538 134.699 60.2187 134.46C60.0762 134.237 59.8564 134.075 59.6016 134.005C59.3468 133.935 59.0751 133.962 58.8387 134.08V134.08Z" fill="#1664A4"/>
<path d="M68.7486 136.36C68.5536 136.165 68.2893 136.055 68.0136 136.055C67.7379 136.055 67.4735 136.165 67.2786 136.36C67.0837 136.555 66.9741 136.819 66.9741 137.095C66.9741 137.371 67.0837 137.635 67.2786 137.83C67.7416 138.35 68.2358 138.84 68.7586 139.3C68.9535 139.495 69.2179 139.604 69.4936 139.604C69.7693 139.604 70.0336 139.495 70.2286 139.3C70.4235 139.105 70.533 138.841 70.533 138.565C70.533 138.289 70.4235 138.025 70.2286 137.83C69.7058 137.37 69.2115 136.88 68.7486 136.36V136.36Z" fill="#1664A4"/>
<path d="M70.6387 129.81C70.3735 129.81 70.1191 129.915 69.9316 130.103C69.744 130.29 69.6387 130.545 69.6387 130.81L69.8587 132.81C69.8752 133.07 69.9858 133.314 70.1699 133.499C70.354 133.683 70.5989 133.793 70.8587 133.81C71.1239 133.81 71.3782 133.704 71.5658 133.517C71.7533 133.329 71.8587 133.075 71.8587 132.81C71.7887 132.14 71.7087 131.46 71.6387 130.81C71.6222 130.55 71.5115 130.305 71.3274 130.121C71.1433 129.937 70.8985 129.826 70.6387 129.81V129.81Z" fill="#1664A4"/>
<path d="M78.3487 127.66C78.586 127.799 78.869 127.838 79.1353 127.769C79.4016 127.7 79.6294 127.527 79.7687 127.29C79.9079 127.052 79.9472 126.77 79.8778 126.503C79.8084 126.237 79.636 126.009 79.3987 125.87L77.8387 124.99C77.7205 124.921 77.5898 124.876 77.4543 124.857C77.3187 124.839 77.1808 124.847 77.0485 124.882C76.9162 124.917 76.792 124.978 76.6831 125.06C76.5741 125.143 76.4826 125.247 76.4137 125.365C76.3447 125.483 76.2997 125.614 76.2813 125.749C76.2628 125.885 76.2712 126.023 76.306 126.155C76.3408 126.287 76.4014 126.412 76.4842 126.52C76.567 126.629 76.6705 126.721 76.7887 126.79L78.3487 127.66Z" fill="#1664A4"/>
<path d="M83.5588 130.4C83.3108 130.412 83.0761 130.516 82.9005 130.692C82.7249 130.867 82.6209 131.102 82.6088 131.35C82.6088 131.99 82.5588 132.62 82.5288 133.26C82.5433 133.506 82.6483 133.738 82.8237 133.912C82.9991 134.085 83.2324 134.188 83.4788 134.2C83.7339 134.2 83.9796 134.103 84.1655 133.929C84.3514 133.754 84.4635 133.515 84.4788 133.26C84.4788 132.62 84.4788 131.99 84.5588 131.35C84.546 131.093 84.4349 130.852 84.2488 130.675C84.0626 130.498 83.8156 130.4 83.5588 130.4Z" fill="#1664A4"/>
<path d="M78.6387 136.14C78.4438 135.945 78.1794 135.835 77.9037 135.835C77.628 135.835 77.3636 135.945 77.1687 136.14C76.9738 136.335 76.8643 136.599 76.8643 136.875C76.8643 137.151 76.9738 137.415 77.1687 137.61L78.7087 138.94C78.9085 139.125 79.171 139.229 79.4437 139.229C79.7164 139.229 79.9789 139.125 80.1787 138.94C80.3741 138.743 80.4838 138.477 80.4838 138.2C80.4838 137.923 80.3741 137.657 80.1787 137.46L78.6387 136.14Z" fill="#1664A4"/>
<path d="M88.0187 125.73C88.3387 125.24 88.6687 124.73 89.0187 124.27C89.158 124.031 89.1967 123.747 89.1264 123.48C89.056 123.212 88.8824 122.984 88.6437 122.845C88.405 122.706 88.1208 122.667 87.8536 122.737C87.5863 122.808 87.358 122.981 87.2187 123.22C86.8887 123.7 86.5687 124.22 86.2187 124.68C86.0828 124.918 86.0454 125.2 86.1145 125.465C86.1836 125.731 86.3539 125.958 86.5887 126.1C86.8295 126.231 87.1113 126.266 87.3769 126.198C87.6424 126.129 87.8719 125.962 88.0187 125.73Z" fill="#1664A4"/>
<path d="M90.8387 130.73L89.1087 129.6C88.87 129.46 88.5858 129.422 88.3185 129.492C88.0513 129.562 87.8229 129.736 87.6837 129.975C87.5445 130.213 87.5057 130.498 87.5761 130.765C87.6464 131.032 87.82 131.26 88.0587 131.4L89.7887 132.54C90.026 132.679 90.309 132.718 90.5753 132.649C90.8416 132.579 91.0694 132.407 91.2087 132.17C91.3479 131.932 91.3871 131.649 91.3178 131.383C91.2484 131.117 91.0761 130.889 90.8387 130.75V130.73Z" fill="#1664A4"/>
<path d="M97.9087 120.65C97.409 121.154 96.9694 121.715 96.5987 122.32C96.4657 122.561 96.4309 122.845 96.5017 123.111C96.5725 123.378 96.7434 123.606 96.9787 123.75C97.0954 123.824 97.2262 123.873 97.3627 123.893C97.4992 123.914 97.6385 123.907 97.7719 123.871C97.9053 123.835 98.0299 123.772 98.1378 123.686C98.2457 123.6 98.3345 123.492 98.3987 123.37C98.6768 122.912 99.0129 122.492 99.3987 122.12C99.5937 121.925 99.7032 121.661 99.7032 121.385C99.7032 121.109 99.5937 120.845 99.3987 120.65C99.2038 120.455 98.9394 120.345 98.6637 120.345C98.388 120.345 98.1237 120.455 97.9287 120.65H97.9087Z" fill="#1664A4"/>
<path d="M95.9786 127.9C96.1137 127.661 96.1496 127.378 96.0786 127.112C96.0075 126.847 95.8352 126.62 95.5986 126.48L94.0587 125.67C93.82 125.531 93.5357 125.492 93.2685 125.562C93.0012 125.633 92.7729 125.806 92.6336 126.045C92.4944 126.284 92.4557 126.568 92.526 126.835C92.5963 127.102 92.7699 127.331 93.0086 127.47L94.5487 128.27C94.7889 128.404 95.0715 128.44 95.3377 128.371C95.604 128.302 95.8335 128.134 95.9786 127.9Z" fill="#1664A4"/>
<path d="M103.489 131.09V128.4C103.489 128.124 103.379 127.859 103.184 127.664C102.989 127.469 102.725 127.36 102.449 127.36C102.173 127.36 101.908 127.469 101.713 127.664C101.518 127.859 101.409 128.124 101.409 128.4V131.09C101.409 131.366 101.518 131.63 101.713 131.825C101.908 132.02 102.173 132.13 102.449 132.13C102.725 132.13 102.989 132.02 103.184 131.825C103.379 131.63 103.489 131.366 103.489 131.09V131.09Z" fill="#1664A4"/>
<path d="M98.0587 130.11C97.8612 129.922 97.5968 129.819 97.324 129.826C97.0511 129.833 96.792 129.947 96.6037 130.145C96.4154 130.342 96.3133 130.607 96.3199 130.88C96.3264 131.152 96.4411 131.412 96.6387 131.6L97.5387 132.69C97.7354 132.885 98.0015 132.995 98.2787 132.995C98.556 132.995 98.822 132.885 99.0187 132.69C99.2043 132.49 99.3074 132.227 99.3074 131.955C99.3074 131.682 99.2043 131.42 99.0187 131.22C98.6387 130.84 98.3587 130.47 98.0587 130.11Z" fill="#1664A4"/>
<path d="M103.779 135.32C103.538 135.186 103.256 135.15 102.989 135.218C102.723 135.287 102.494 135.456 102.349 135.69L101.569 136.82C101.495 136.936 101.446 137.067 101.425 137.204C101.404 137.34 101.412 137.48 101.448 137.613C101.483 137.746 101.546 137.871 101.632 137.979C101.719 138.087 101.826 138.176 101.949 138.24C102.187 138.373 102.468 138.409 102.733 138.34C102.998 138.271 103.225 138.103 103.369 137.87L104.149 136.74C104.285 136.502 104.322 136.22 104.253 135.954C104.184 135.689 104.013 135.461 103.779 135.32V135.32Z" fill="#1664A4"/>
<path d="M89.7188 137.38C89.3643 137.093 89.0302 136.783 88.7188 136.45C88.5238 136.255 88.2595 136.145 87.9838 136.145C87.7081 136.145 87.4437 136.255 87.2488 136.45C87.0538 136.645 86.9443 136.909 86.9443 137.185C86.9443 137.46 87.0538 137.725 87.2488 137.92C87.6988 138.374 88.1836 138.791 88.6988 139.17C88.8152 139.246 88.9462 139.296 89.0833 139.319C89.2205 139.341 89.3608 139.335 89.4954 139.3C89.6299 139.265 89.7558 139.203 89.8648 139.117C89.9739 139.031 90.0638 138.923 90.1288 138.8C90.2562 138.556 90.2847 138.272 90.2084 138.008C90.132 137.743 89.9567 137.518 89.7188 137.38Z" fill="#1664A4"/>
<path d="M96.2087 134.73C95.9474 134.742 95.7001 134.851 95.5151 135.036C95.3302 135.221 95.2209 135.468 95.2087 135.73C95.2887 136.45 95.3787 137.18 95.4587 137.9C95.4752 138.16 95.5859 138.404 95.77 138.589C95.9541 138.773 96.1989 138.883 96.4587 138.9C96.72 138.888 96.9674 138.778 97.1523 138.593C97.3373 138.408 97.4466 138.161 97.4587 137.9C97.3787 137.18 97.2887 136.45 97.2087 135.73C97.1922 135.47 97.0816 135.225 96.8975 135.041C96.7134 134.857 96.4685 134.746 96.2087 134.73Z" fill="#1664A4"/>
<path d="M59.1986 130.88C59.1986 130.11 59.1986 129.34 59.1986 128.57C59.1986 128.294 59.0891 128.029 58.894 127.834C58.699 127.639 58.4345 127.53 58.1586 127.53C57.8828 127.53 57.6183 127.639 57.4232 127.834C57.2282 128.029 57.1187 128.294 57.1187 128.57V130.88C57.1187 131.156 57.2282 131.42 57.4232 131.615C57.6183 131.81 57.8828 131.92 58.1586 131.92C58.4345 131.92 58.699 131.81 58.894 131.615C59.0891 131.42 59.1986 131.156 59.1986 130.88V130.88Z" fill="#1664A4"/>
<path d="M60.3787 86.7699C62.6983 86.7699 64.5787 84.8895 64.5787 82.5699C64.5787 80.2503 62.6983 78.3699 60.3787 78.3699C58.0591 78.3699 56.1787 80.2503 56.1787 82.5699C56.1787 84.8895 58.0591 86.7699 60.3787 86.7699Z" fill="#E07160"/>
<path d="M101.439 86.7699C103.758 86.7699 105.639 84.8895 105.639 82.5699C105.639 80.2503 103.758 78.3699 101.439 78.3699C99.1192 78.3699 97.2388 80.2503 97.2388 82.5699C97.2388 84.8895 99.1192 86.7699 101.439 86.7699Z" fill="#E07160"/>
<circle cx="14" cy="35" r="3" fill="#37485B"/>
<circle cx="24" cy="35" r="3" fill="#37485B"/>
<circle cx="34" cy="35" r="3" fill="#37485B"/>
</svg>
